<?xml version="1.0" standalone="no"?>
<svg version="1.0" xmlns="http://www.w3.org/2000/svg"
     width="500" height="250" viewBox="0 0 760 300">

    <g transform="translate(0,260) scale(0.1,-0.1)" fill="#fff">
        <path d="M641 2563 c-24 -22 -45 -70 -101 -233 -40 -113 -110 -311 -156 -441
-84 -235 -95 -284 -72 -307 9 -9 239 -12 975 -12 1022 0 1009 -1 1027 45 3 8
38 106 77 218 39 111 109 308 155 438 84 236 95 284 72 307 -9 9 -240 12 -980
12 l-968 0 -29 -27z"/>
        <path d="M3118 2573 c-15 -10 -32 -29 -37 -43 -10 -24 -262 -736 -295 -830
-19 -56 -20 -104 -2 -119 10 -8 270 -11 984 -9 l972 3 23 25 c16 17 57 118
122 305 54 154 124 354 156 444 60 167 68 208 47 229 -9 9 -240 12 -977 12
-888 -1 -968 -2 -993 -17z"/>
        <path d="M368 1278 c-19 -19 -48 -125 -162 -582 l-139 -559 23 -19 c19 -15 41
-18 151 -18 209 0 316 35 418 138 89 88 112 143 192 464 62 248 70 291 65 346
-6 74 -45 153 -91 187 -74 55 -90 59 -267 63 -164 4 -167 4 -190 -20z m264
-255 c11 -9 18 -30 18 -50 0 -41 -115 -505 -135 -543 -18 -34 -57 -60 -102
-67 -31 -5 -35 -4 -30 13 4 10 38 147 77 304 39 157 75 302 81 323 9 33 13 37
41 37 17 0 40 -7 50 -17z"/>
        <path d="M1267 1288 c-23 -17 -497 -1105 -497 -1140 0 -38 25 -48 123 -48 66
0 89 4 105 18 12 9 53 89 91 177 l70 160 77 3 76 3 -6 -48 c-12 -107 -17 -278
-7 -293 8 -11 35 -16 104 -18 87 -4 96 -2 120 20 l27 23 35 550 c19 303 35
555 35 562 0 6 -7 19 -16 27 -13 13 -43 16 -168 16 -106 0 -157 -4 -169 -12z
m59 -544 c-4 -15 -14 -24 -26 -24 -25 0 -25 9 3 66 l22 47 3 -33 c2 -18 1 -43
-2 -56z"/>
        <path d="M1893 1283 c-10 -10 -29 -62 -41 -116 -31 -125 -30 -127 89 -127 54
0 89 -4 89 -10 0 -6 -50 -209 -110 -451 -86 -342 -108 -444 -99 -455 14 -18
219 -20 236 -3 6 6 62 215 124 465 l114 454 93 0 c51 0 102 4 112 10 20 11 65
178 58 221 l-3 24 -322 3 c-297 2 -324 1 -340 -15z"/>
        <path d="M2842 1283 c-16 -15 -483 -1065 -499 -1125 -3 -9 5 -26 16 -37 18
-18 33 -21 109 -21 55 0 95 5 105 13 10 6 50 86 91 177 l73 165 74 0 c44 0 73
-4 72 -10 0 -5 -4 -81 -8 -167 l-8 -157 27 -11 c35 -13 157 -13 190 0 15 5 31
20 36 32 5 13 25 271 44 573 32 502 33 552 19 568 -14 15 -36 17 -168 17 -131
0 -156 -2 -173 -17z m63 -508 c-6 -49 -9 -55 -30 -55 l-24 0 26 60 c15 33 28
58 31 55 2 -2 1 -29 -3 -60z"/>
        <path d="M3977 1286 c-18 -18 -60 -184 -55 -217 3 -23 7 -24 101 -27 72 -2 98
-6 94 -15 -23 -65 -219 -887 -214 -900 5 -15 22 -17 122 -17 110 0 116 1 125
23 5 12 55 204 110 427 56 223 105 422 111 443 l10 37 93 0 c122 0 128 5 156
133 17 77 19 101 10 112 -18 22 -641 22 -663 1z"/>
        <path d="M4893 1285 c-94 -29 -179 -99 -222 -184 -23 -44 -201 -745 -201 -789
0 -72 48 -150 112 -183 37 -19 55 -21 172 -17 123 3 134 5 184 32 60 34 121
96 151 154 22 43 201 745 201 788 0 84 -70 182 -145 203 -54 15 -200 13 -252
-4z m52 -573 c-45 -181 -85 -334 -89 -340 -9 -15 -116 -16 -116 -2 0 15 160
652 166 662 3 4 31 8 63 8 l59 0 -83 -328z"/>
        <path d="M5573 1281 c-95 -32 -171 -99 -213 -186 -10 -22 -60 -204 -110 -405
-97 -391 -99 -403 -59 -482 11 -21 38 -50 61 -65 39 -26 49 -28 169 -31 121
-3 131 -2 188 23 63 29 145 104 174 162 24 46 197 746 197 795 -1 86 -67 175
-147 197 -61 17 -201 13 -260 -8z m143 -258 c-3 -10 -40 -157 -82 -328 -42
-170 -81 -316 -87 -323 -9 -11 -117 -18 -117 -7 0 7 159 646 165 663 3 8 26
12 65 12 54 0 61 -2 56 -17z"/>
        <path d="M6102 1291 c-13 -7 -301 -1131 -302 -1173 0 -17 21 -18 303 -18 277
0 305 2 319 18 24 27 64 200 51 220 -9 15 -34 17 -182 20 -104 1 -171 6 -171
12 0 6 50 210 111 455 91 364 109 448 99 460 -10 12 -36 15 -114 15 -55 0
-107 -4 -114 -9z"/>
        <path d="M6977 1290 c-88 -22 -186 -96 -232 -174 -36 -62 -88 -279 -83 -348 8
-117 96 -188 234 -188 40 0 75 -3 77 -7 2 -5 -8 -53 -22 -108 l-26 -100 -61
-3 -60 -3 4 36 c7 57 -7 65 -117 65 -62 0 -103 -5 -114 -13 -23 -16 -47 -134
-38 -183 9 -49 22 -72 58 -106 43 -41 74 -48 211 -48 144 0 189 14 270 85 62
54 91 111 128 258 37 147 41 200 19 255 -35 83 -96 119 -218 128 l-84 7 22 87
c12 48 25 93 29 99 4 6 32 11 63 11 l55 0 -6 -36 c-11 -57 1 -64 120 -64 121
0 126 3 143 89 20 103 -15 190 -97 238 -41 24 -58 28 -142 30 -52 1 -112 -2
-133 -7z"/>
    </g>
</svg>
